# xmcd
# Track frame offsets:
# 150
# 19548
# 33165
# 47911
# 63262
# 80328
# 98019
# 117834
# 132358
# 150060
# 166689
# 184490
#
# Disc length: 2687 seconds
# Revision: 0
# Processed by: cddbd v1.5.2PL0 Copyright (c) Steve Scherf et al.
# Submitted via: VisiTrax 2.10.3.257 - For more info visit www.synapsa.com
#
DISCID=850a7d0c
DTITLE=Hooper, Danny - The Legacy
DYEAR=2007
DGENRE=
TTITLE0=Every Reason
TTITLE1=Heartache
TTITLE2=Hold On
TTITLE3=I Left You
TTITLE4=Up
TTITLE5=The Legacy
TTITLE6=Blue
TTITLE7=Already Gone
TTITLE8=She's the One
TTITLE9=Just Thought you'd like to Know
TTITLE10=In another Life
TTITLE11=Dreamland
EXTD=
EXTT0=
EXTT1=
EXTT2=
EXTT3=
EXTT4=
EXTT5=
EXTT6=
EXTT7=
EXTT8=
EXTT9=
EXTT10=
EXTT11=
PLAYORDER=
